<svg width="320" height="320" viewBox="0 0 320 320" fill="none" xmlns="http://www.w3.org/2000/svg">
  <rect width="320" height="320" rx="28" fill="#FFFFFF"/>
  <rect x="28" y="28" width="264" height="264" rx="16" fill="#F8FAFC"/>
  <rect x="48" y="48" width="64" height="64" rx="8" fill="#0F172A"/>
  <rect x="60" y="60" width="40" height="40" rx="4" fill="#FFFFFF"/>
  <rect x="72" y="72" width="16" height="16" rx="2" fill="#0F172A"/>
  <rect x="208" y="48" width="64" height="64" rx="8" fill="#0F172A"/>
  <rect x="220" y="60" width="40" height="40" rx="4" fill="#FFFFFF"/>
  <rect x="232" y="72" width="16" height="16" rx="2" fill="#0F172A"/>
  <rect x="48" y="208" width="64" height="64" rx="8" fill="#0F172A"/>
  <rect x="60" y="220" width="40" height="40" rx="4" fill="#FFFFFF"/>
  <rect x="72" y="232" width="16" height="16" rx="2" fill="#0F172A"/>
  <rect x="136" y="48" width="16" height="16" rx="2" fill="#0F172A"/>
  <rect x="160" y="48" width="16" height="16" rx="2" fill="#0F172A"/>
  <rect x="184" y="48" width="16" height="16" rx="2" fill="#0F172A"/>
  <rect x="136" y="72" width="16" height="16" rx="2" fill="#0F172A"/>
  <rect x="184" y="72" width="16" height="16" rx="2" fill="#0F172A"/>
  <rect x="136" y="96" width="16" height="16" rx="2" fill="#0F172A"/>
  <rect x="160" y="96" width="16" height="16" rx="2" fill="#34D399"/>
  <rect x="184" y="96" width="16" height="16" rx="2" fill="#0F172A"/>
  <rect x="136" y="136" width="16" height="16" rx="2" fill="#0F172A"/>
  <rect x="160" y="136" width="16" height="16" rx="2" fill="#0F172A"/>
  <rect x="184" y="136" width="16" height="16" rx="2" fill="#0F172A"/>
  <rect x="208" y="136" width="16" height="16" rx="2" fill="#34D399"/>
  <rect x="232" y="136" width="16" height="16" rx="2" fill="#0F172A"/>
  <rect x="256" y="136" width="16" height="16" rx="2" fill="#0F172A"/>
  <rect x="136" y="160" width="16" height="16" rx="2" fill="#34D399"/>
  <rect x="184" y="160" width="16" height="16" rx="2" fill="#0F172A"/>
  <rect x="208" y="160" width="16" height="16" rx="2" fill="#0F172A"/>
  <rect x="256" y="160" width="16" height="16" rx="2" fill="#34D399"/>
  <rect x="136" y="184" width="16" height="16" rx="2" fill="#0F172A"/>
  <rect x="160" y="184" width="16" height="16" rx="2" fill="#0F172A"/>
  <rect x="184" y="184" width="16" height="16" rx="2" fill="#34D399"/>
  <rect x="232" y="184" width="16" height="16" rx="2" fill="#0F172A"/>
  <rect x="256" y="184" width="16" height="16" rx="2" fill="#0F172A"/>
  <rect x="136" y="208" width="16" height="16" rx="2" fill="#0F172A"/>
  <rect x="184" y="208" width="16" height="16" rx="2" fill="#0F172A"/>
  <rect x="208" y="208" width="16" height="16" rx="2" fill="#34D399"/>
  <rect x="232" y="208" width="16" height="16" rx="2" fill="#0F172A"/>
  <rect x="256" y="208" width="16" height="16" rx="2" fill="#0F172A"/>
  <rect x="136" y="232" width="16" height="16" rx="2" fill="#34D399"/>
  <rect x="160" y="232" width="16" height="16" rx="2" fill="#0F172A"/>
  <rect x="184" y="232" width="16" height="16" rx="2" fill="#0F172A"/>
  <rect x="208" y="232" width="16" height="16" rx="2" fill="#0F172A"/>
  <rect x="256" y="232" width="16" height="16" rx="2" fill="#34D399"/>
  <rect x="136" y="256" width="16" height="16" rx="2" fill="#0F172A"/>
  <rect x="160" y="256" width="16" height="16" rx="2" fill="#34D399"/>
  <rect x="184" y="256" width="16" height="16" rx="2" fill="#0F172A"/>
  <rect x="208" y="256" width="16" height="16" rx="2" fill="#0F172A"/>
  <rect x="232" y="256" width="16" height="16" rx="2" fill="#34D399"/>
  <rect x="256" y="256" width="16" height="16" rx="2" fill="#0F172A"/>
</svg>
